<mxfile host="www.draw.io" modified="2020-01-21T16:53:52.083Z" agent="Mozilla/5.0 (Macintosh; Intel Mac OS X 10_15_1) AppleWebKit/537.36 (KHTML, like Gecko) Chrome/79.0.3945.88 Safari/537.36" etag="gHIx0JcHmc8f-oc9gCHm" version="12.5.5" type="github">
  <diagram id="1-tBwHP-1E4B09z1GZpH" name="01 - mockup">
    <mxGraphModel dx="996" dy="478" grid="1" gridSize="10" guides="1" tooltips="1" connect="1" arrows="1" fold="1" page="1" pageScale="1" pageWidth="1920" pageHeight="1200" math="0" shadow="0">
      <root>
        <mxCell id="0"/>
        <mxCell id="1" parent="0"/>
        <mxCell id="cDVxxowh9d5He5ktdna4-1" value="" style="strokeWidth=1;shadow=0;dashed=0;align=center;html=1;shape=mxgraph.mockup.containers.browserWindow;rSize=0;strokeColor=#666666;strokeColor2=#008cff;strokeColor3=#c4c4c4;mainText=,;recursiveResize=0;" vertex="1" parent="1">
          <mxGeometry x="140" y="160" width="630" height="470" as="geometry"/>
        </mxCell>
        <mxCell id="cDVxxowh9d5He5ktdna4-2" value="Page 1" style="strokeWidth=1;shadow=0;dashed=0;align=center;html=1;shape=mxgraph.mockup.containers.anchor;fontSize=17;fontColor=#666666;align=left;" vertex="1" parent="cDVxxowh9d5He5ktdna4-1">
          <mxGeometry x="60" y="12" width="110" height="26" as="geometry"/>
        </mxCell>
        <mxCell id="cDVxxowh9d5He5ktdna4-3" value="localhost:4200/" style="strokeWidth=1;shadow=0;dashed=0;align=center;html=1;shape=mxgraph.mockup.containers.anchor;rSize=0;fontSize=17;fontColor=#666666;align=left;" vertex="1" parent="cDVxxowh9d5He5ktdna4-1">
          <mxGeometry x="130" y="60" width="250" height="26" as="geometry"/>
        </mxCell>
        <mxCell id="cDVxxowh9d5He5ktdna4-5" value="" style="rounded=0;whiteSpace=wrap;html=1;" vertex="1" parent="cDVxxowh9d5He5ktdna4-1">
          <mxGeometry y="110" width="630" height="50" as="geometry"/>
        </mxCell>
        <mxCell id="cDVxxowh9d5He5ktdna4-6" value="Angular Email" style="text;html=1;strokeColor=none;fillColor=none;align=center;verticalAlign=middle;whiteSpace=wrap;rounded=0;" vertex="1" parent="cDVxxowh9d5He5ktdna4-1">
          <mxGeometry x="20" y="125" width="80" height="20" as="geometry"/>
        </mxCell>
        <mxCell id="cDVxxowh9d5He5ktdna4-7" value="Sign In" style="text;html=1;strokeColor=none;fillColor=none;align=center;verticalAlign=middle;whiteSpace=wrap;rounded=0;" vertex="1" parent="cDVxxowh9d5He5ktdna4-1">
          <mxGeometry x="530" y="125" width="80" height="20" as="geometry"/>
        </mxCell>
        <mxCell id="cDVxxowh9d5He5ktdna4-8" value="Sign Up" style="text;html=1;strokeColor=none;fillColor=none;align=center;verticalAlign=middle;whiteSpace=wrap;rounded=0;" vertex="1" parent="cDVxxowh9d5He5ktdna4-1">
          <mxGeometry x="460" y="125" width="80" height="20" as="geometry"/>
        </mxCell>
        <mxCell id="cDVxxowh9d5He5ktdna4-9" value="Sign In" style="text;html=1;strokeColor=none;fillColor=none;align=left;verticalAlign=middle;whiteSpace=wrap;rounded=0;fontStyle=1;fontSize=17;" vertex="1" parent="cDVxxowh9d5He5ktdna4-1">
          <mxGeometry x="40" y="180" width="100" height="20" as="geometry"/>
        </mxCell>
        <mxCell id="cDVxxowh9d5He5ktdna4-10" value="Username" style="text;html=1;strokeColor=none;fillColor=none;align=left;verticalAlign=middle;whiteSpace=wrap;rounded=0;fontSize=13;" vertex="1" parent="cDVxxowh9d5He5ktdna4-1">
          <mxGeometry x="40" y="220" width="40" height="20" as="geometry"/>
        </mxCell>
        <mxCell id="cDVxxowh9d5He5ktdna4-11" value="" style="rounded=0;whiteSpace=wrap;html=1;fontSize=13;align=left;" vertex="1" parent="cDVxxowh9d5He5ktdna4-1">
          <mxGeometry x="40" y="240" width="230" height="30" as="geometry"/>
        </mxCell>
        <mxCell id="cDVxxowh9d5He5ktdna4-12" value="Password" style="text;html=1;strokeColor=none;fillColor=none;align=left;verticalAlign=middle;whiteSpace=wrap;rounded=0;fontSize=13;" vertex="1" parent="cDVxxowh9d5He5ktdna4-1">
          <mxGeometry x="40" y="280" width="40" height="20" as="geometry"/>
        </mxCell>
        <mxCell id="cDVxxowh9d5He5ktdna4-13" value="" style="rounded=0;whiteSpace=wrap;html=1;fontSize=13;align=left;" vertex="1" parent="cDVxxowh9d5He5ktdna4-1">
          <mxGeometry x="40" y="300" width="230" height="30" as="geometry"/>
        </mxCell>
        <mxCell id="cDVxxowh9d5He5ktdna4-15" value="Submit" style="rounded=1;whiteSpace=wrap;html=1;fontSize=13;align=center;" vertex="1" parent="cDVxxowh9d5He5ktdna4-1">
          <mxGeometry x="40" y="347" width="110" height="33" as="geometry"/>
        </mxCell>
        <mxCell id="cDVxxowh9d5He5ktdna4-16" value="" style="endArrow=none;html=1;fontSize=13;" edge="1" parent="cDVxxowh9d5He5ktdna4-1">
          <mxGeometry width="50" height="50" relative="1" as="geometry">
            <mxPoint x="40" y="400" as="sourcePoint"/>
            <mxPoint x="330" y="400.79999999999995" as="targetPoint"/>
          </mxGeometry>
        </mxCell>
        <mxCell id="cDVxxowh9d5He5ktdna4-17" value="Don&#39;t have an account? Sign up Instead" style="text;html=1;strokeColor=none;fillColor=none;align=left;verticalAlign=middle;whiteSpace=wrap;rounded=0;fontSize=13;" vertex="1" parent="cDVxxowh9d5He5ktdna4-1">
          <mxGeometry x="40" y="410" width="270" height="20" as="geometry"/>
        </mxCell>
        <mxCell id="cDVxxowh9d5He5ktdna4-18" value="" style="strokeWidth=1;shadow=0;dashed=0;align=center;html=1;shape=mxgraph.mockup.containers.browserWindow;rSize=0;strokeColor=#666666;strokeColor2=#008cff;strokeColor3=#c4c4c4;mainText=,;recursiveResize=0;" vertex="1" parent="1">
          <mxGeometry x="810" y="160" width="630" height="470" as="geometry"/>
        </mxCell>
        <mxCell id="cDVxxowh9d5He5ktdna4-19" value="Page 1" style="strokeWidth=1;shadow=0;dashed=0;align=center;html=1;shape=mxgraph.mockup.containers.anchor;fontSize=17;fontColor=#666666;align=left;" vertex="1" parent="cDVxxowh9d5He5ktdna4-18">
          <mxGeometry x="60" y="12" width="110" height="26" as="geometry"/>
        </mxCell>
        <mxCell id="cDVxxowh9d5He5ktdna4-20" value="localhost:4200/" style="strokeWidth=1;shadow=0;dashed=0;align=center;html=1;shape=mxgraph.mockup.containers.anchor;rSize=0;fontSize=17;fontColor=#666666;align=left;" vertex="1" parent="cDVxxowh9d5He5ktdna4-18">
          <mxGeometry x="130" y="60" width="250" height="26" as="geometry"/>
        </mxCell>
        <mxCell id="cDVxxowh9d5He5ktdna4-21" value="" style="rounded=0;whiteSpace=wrap;html=1;" vertex="1" parent="cDVxxowh9d5He5ktdna4-18">
          <mxGeometry y="110" width="630" height="50" as="geometry"/>
        </mxCell>
        <mxCell id="cDVxxowh9d5He5ktdna4-22" value="Angular Email" style="text;html=1;strokeColor=none;fillColor=none;align=center;verticalAlign=middle;whiteSpace=wrap;rounded=0;" vertex="1" parent="cDVxxowh9d5He5ktdna4-18">
          <mxGeometry x="20" y="125" width="80" height="20" as="geometry"/>
        </mxCell>
        <mxCell id="cDVxxowh9d5He5ktdna4-23" value="Sign In" style="text;html=1;strokeColor=none;fillColor=none;align=center;verticalAlign=middle;whiteSpace=wrap;rounded=0;" vertex="1" parent="cDVxxowh9d5He5ktdna4-18">
          <mxGeometry x="530" y="125" width="80" height="20" as="geometry"/>
        </mxCell>
        <mxCell id="cDVxxowh9d5He5ktdna4-24" value="Sign Up" style="text;html=1;strokeColor=none;fillColor=none;align=center;verticalAlign=middle;whiteSpace=wrap;rounded=0;" vertex="1" parent="cDVxxowh9d5He5ktdna4-18">
          <mxGeometry x="460" y="125" width="80" height="20" as="geometry"/>
        </mxCell>
        <mxCell id="cDVxxowh9d5He5ktdna4-25" value="Sign Up" style="text;html=1;strokeColor=none;fillColor=none;align=left;verticalAlign=middle;whiteSpace=wrap;rounded=0;fontStyle=1;fontSize=17;" vertex="1" parent="cDVxxowh9d5He5ktdna4-18">
          <mxGeometry x="40" y="180" width="100" height="20" as="geometry"/>
        </mxCell>
        <mxCell id="cDVxxowh9d5He5ktdna4-26" value="Username" style="text;html=1;strokeColor=none;fillColor=none;align=left;verticalAlign=middle;whiteSpace=wrap;rounded=0;fontSize=13;" vertex="1" parent="cDVxxowh9d5He5ktdna4-18">
          <mxGeometry x="40" y="220" width="40" height="20" as="geometry"/>
        </mxCell>
        <mxCell id="cDVxxowh9d5He5ktdna4-27" value="" style="rounded=0;whiteSpace=wrap;html=1;fontSize=13;align=left;" vertex="1" parent="cDVxxowh9d5He5ktdna4-18">
          <mxGeometry x="40" y="240" width="230" height="30" as="geometry"/>
        </mxCell>
        <mxCell id="cDVxxowh9d5He5ktdna4-28" value="Password" style="text;html=1;strokeColor=none;fillColor=none;align=left;verticalAlign=middle;whiteSpace=wrap;rounded=0;fontSize=13;" vertex="1" parent="cDVxxowh9d5He5ktdna4-18">
          <mxGeometry x="40" y="275" width="40" height="20" as="geometry"/>
        </mxCell>
        <mxCell id="cDVxxowh9d5He5ktdna4-29" value="" style="rounded=0;whiteSpace=wrap;html=1;fontSize=13;align=left;" vertex="1" parent="cDVxxowh9d5He5ktdna4-18">
          <mxGeometry x="40" y="295" width="230" height="30" as="geometry"/>
        </mxCell>
        <mxCell id="cDVxxowh9d5He5ktdna4-30" value="Submit" style="rounded=1;whiteSpace=wrap;html=1;fontSize=13;align=center;" vertex="1" parent="cDVxxowh9d5He5ktdna4-18">
          <mxGeometry x="40" y="387" width="110" height="33" as="geometry"/>
        </mxCell>
        <mxCell id="cDVxxowh9d5He5ktdna4-31" value="" style="endArrow=none;html=1;fontSize=13;" edge="1" parent="cDVxxowh9d5He5ktdna4-18">
          <mxGeometry width="50" height="50" relative="1" as="geometry">
            <mxPoint x="40" y="430" as="sourcePoint"/>
            <mxPoint x="330" y="430.79999999999995" as="targetPoint"/>
          </mxGeometry>
        </mxCell>
        <mxCell id="cDVxxowh9d5He5ktdna4-32" value="Already have an account? Sign in instead" style="text;html=1;strokeColor=none;fillColor=none;align=left;verticalAlign=middle;whiteSpace=wrap;rounded=0;fontSize=13;" vertex="1" parent="cDVxxowh9d5He5ktdna4-18">
          <mxGeometry x="40" y="440" width="270" height="20" as="geometry"/>
        </mxCell>
        <mxCell id="cDVxxowh9d5He5ktdna4-33" value="Password Confirmation" style="text;html=1;strokeColor=none;fillColor=none;align=left;verticalAlign=middle;whiteSpace=wrap;rounded=0;fontSize=13;" vertex="1" parent="cDVxxowh9d5He5ktdna4-18">
          <mxGeometry x="40" y="330" width="160" height="20" as="geometry"/>
        </mxCell>
        <mxCell id="cDVxxowh9d5He5ktdna4-34" value="" style="rounded=0;whiteSpace=wrap;html=1;fontSize=13;align=left;" vertex="1" parent="cDVxxowh9d5He5ktdna4-18">
          <mxGeometry x="40" y="350" width="230" height="30" as="geometry"/>
        </mxCell>
        <mxCell id="cDVxxowh9d5He5ktdna4-35" value="" style="strokeWidth=1;shadow=0;dashed=0;align=center;html=1;shape=mxgraph.mockup.containers.browserWindow;rSize=0;strokeColor=#666666;strokeColor2=#008cff;strokeColor3=#c4c4c4;mainText=,;recursiveResize=0;" vertex="1" parent="1">
          <mxGeometry x="1470" y="160" width="630" height="470" as="geometry"/>
        </mxCell>
        <mxCell id="cDVxxowh9d5He5ktdna4-36" value="Page 1" style="strokeWidth=1;shadow=0;dashed=0;align=center;html=1;shape=mxgraph.mockup.containers.anchor;fontSize=17;fontColor=#666666;align=left;" vertex="1" parent="cDVxxowh9d5He5ktdna4-35">
          <mxGeometry x="60" y="12" width="110" height="26" as="geometry"/>
        </mxCell>
        <mxCell id="cDVxxowh9d5He5ktdna4-37" value="localhost:4200/inbox" style="strokeWidth=1;shadow=0;dashed=0;align=center;html=1;shape=mxgraph.mockup.containers.anchor;rSize=0;fontSize=17;fontColor=#666666;align=left;" vertex="1" parent="cDVxxowh9d5He5ktdna4-35">
          <mxGeometry x="130" y="60" width="250" height="26" as="geometry"/>
        </mxCell>
        <mxCell id="cDVxxowh9d5He5ktdna4-38" value="" style="rounded=0;whiteSpace=wrap;html=1;" vertex="1" parent="cDVxxowh9d5He5ktdna4-35">
          <mxGeometry y="110" width="630" height="50" as="geometry"/>
        </mxCell>
        <mxCell id="cDVxxowh9d5He5ktdna4-39" value="Angular Email" style="text;html=1;strokeColor=none;fillColor=none;align=center;verticalAlign=middle;whiteSpace=wrap;rounded=0;" vertex="1" parent="cDVxxowh9d5He5ktdna4-35">
          <mxGeometry x="20" y="125" width="80" height="20" as="geometry"/>
        </mxCell>
        <mxCell id="cDVxxowh9d5He5ktdna4-40" value="Sign Out" style="text;html=1;strokeColor=none;fillColor=none;align=center;verticalAlign=middle;whiteSpace=wrap;rounded=0;" vertex="1" parent="cDVxxowh9d5He5ktdna4-35">
          <mxGeometry x="530" y="125" width="80" height="20" as="geometry"/>
        </mxCell>
        <mxCell id="cDVxxowh9d5He5ktdna4-41" value="Inbox" style="text;html=1;strokeColor=none;fillColor=none;align=center;verticalAlign=middle;whiteSpace=wrap;rounded=0;" vertex="1" parent="cDVxxowh9d5He5ktdna4-35">
          <mxGeometry x="460" y="125" width="80" height="20" as="geometry"/>
        </mxCell>
        <mxCell id="cDVxxowh9d5He5ktdna4-53" value="Compose" style="rounded=1;whiteSpace=wrap;html=1;fontSize=13;align=center;" vertex="1" parent="cDVxxowh9d5He5ktdna4-35">
          <mxGeometry x="30" y="170" width="140" height="40" as="geometry"/>
        </mxCell>
        <mxCell id="cDVxxowh9d5He5ktdna4-54" value="&amp;nbsp; &lt;b style=&quot;font-size: 12px;&quot;&gt;Latest Newsletter&lt;/b&gt;&lt;br style=&quot;font-size: 12px;&quot;&gt;&amp;nbsp; Computer Weekly" style="rounded=0;whiteSpace=wrap;html=1;fontSize=12;align=left;" vertex="1" parent="cDVxxowh9d5He5ktdna4-35">
          <mxGeometry x="30" y="225" width="140" height="45" as="geometry"/>
        </mxCell>
        <mxCell id="cDVxxowh9d5He5ktdna4-55" value="&amp;nbsp; &lt;b style=&quot;font-size: 12px&quot;&gt;About our trip...&lt;/b&gt;&lt;br style=&quot;font-size: 12px&quot;&gt;&amp;nbsp; Friendly friend" style="rounded=0;whiteSpace=wrap;html=1;fontSize=12;align=left;" vertex="1" parent="cDVxxowh9d5He5ktdna4-35">
          <mxGeometry x="30" y="270" width="140" height="45" as="geometry"/>
        </mxCell>
        <mxCell id="cDVxxowh9d5He5ktdna4-56" value="&amp;nbsp; &lt;b style=&quot;font-size: 12px&quot;&gt;Pictures from Monday&lt;/b&gt;&lt;br style=&quot;font-size: 12px&quot;&gt;&amp;nbsp; Friendly friend" style="rounded=0;whiteSpace=wrap;html=1;fontSize=12;align=left;" vertex="1" parent="cDVxxowh9d5He5ktdna4-35">
          <mxGeometry x="30" y="315" width="140" height="45" as="geometry"/>
        </mxCell>
        <mxCell id="cDVxxowh9d5He5ktdna4-57" value="&amp;nbsp; &lt;b&gt;10% off Food&lt;/b&gt;&lt;br style=&quot;font-size: 12px&quot;&gt;&amp;nbsp; Marketin Email" style="rounded=0;whiteSpace=wrap;html=1;fontSize=12;align=left;" vertex="1" parent="cDVxxowh9d5He5ktdna4-35">
          <mxGeometry x="30" y="360" width="140" height="45" as="geometry"/>
        </mxCell>
        <mxCell id="cDVxxowh9d5He5ktdna4-58" value="" style="rounded=0;whiteSpace=wrap;html=1;fontSize=12;align=center;" vertex="1" parent="cDVxxowh9d5He5ktdna4-35">
          <mxGeometry x="180" y="170" width="400" height="240" as="geometry"/>
        </mxCell>
        <mxCell id="cDVxxowh9d5He5ktdna4-59" value="" style="verticalLabelPosition=bottom;html=1;verticalAlign=top;align=center;strokeColor=none;fillColor=#00BEF2;shape=mxgraph.azure.message;pointerEvents=1;fontSize=12;" vertex="1" parent="cDVxxowh9d5He5ktdna4-35">
          <mxGeometry x="355" y="210" width="50" height="37.5" as="geometry"/>
        </mxCell>
        <mxCell id="cDVxxowh9d5He5ktdna4-60" value="Select an email to view" style="text;html=1;strokeColor=none;fillColor=none;align=center;verticalAlign=middle;whiteSpace=wrap;rounded=0;fontSize=19;" vertex="1" parent="cDVxxowh9d5He5ktdna4-35">
          <mxGeometry x="267.5" y="270" width="225" height="20" as="geometry"/>
        </mxCell>
        <mxCell id="cDVxxowh9d5He5ktdna4-61" value="" style="strokeWidth=1;shadow=0;dashed=0;align=center;html=1;shape=mxgraph.mockup.containers.browserWindow;rSize=0;strokeColor=#666666;strokeColor2=#008cff;strokeColor3=#c4c4c4;mainText=,;recursiveResize=0;" vertex="1" parent="1">
          <mxGeometry x="2140" y="160" width="630" height="470" as="geometry"/>
        </mxCell>
        <mxCell id="cDVxxowh9d5He5ktdna4-62" value="Page 1" style="strokeWidth=1;shadow=0;dashed=0;align=center;html=1;shape=mxgraph.mockup.containers.anchor;fontSize=17;fontColor=#666666;align=left;" vertex="1" parent="cDVxxowh9d5He5ktdna4-61">
          <mxGeometry x="60" y="12" width="110" height="26" as="geometry"/>
        </mxCell>
        <mxCell id="cDVxxowh9d5He5ktdna4-63" value="localhost:4200/inbox/lalkgkj3k434" style="strokeWidth=1;shadow=0;dashed=0;align=center;html=1;shape=mxgraph.mockup.containers.anchor;rSize=0;fontSize=17;fontColor=#666666;align=left;" vertex="1" parent="cDVxxowh9d5He5ktdna4-61">
          <mxGeometry x="130" y="60" width="250" height="26" as="geometry"/>
        </mxCell>
        <mxCell id="cDVxxowh9d5He5ktdna4-64" value="" style="rounded=0;whiteSpace=wrap;html=1;" vertex="1" parent="cDVxxowh9d5He5ktdna4-61">
          <mxGeometry y="110" width="630" height="50" as="geometry"/>
        </mxCell>
        <mxCell id="cDVxxowh9d5He5ktdna4-65" value="Angular Email" style="text;html=1;strokeColor=none;fillColor=none;align=center;verticalAlign=middle;whiteSpace=wrap;rounded=0;" vertex="1" parent="cDVxxowh9d5He5ktdna4-61">
          <mxGeometry x="20" y="125" width="80" height="20" as="geometry"/>
        </mxCell>
        <mxCell id="cDVxxowh9d5He5ktdna4-66" value="Sign Out" style="text;html=1;strokeColor=none;fillColor=none;align=center;verticalAlign=middle;whiteSpace=wrap;rounded=0;" vertex="1" parent="cDVxxowh9d5He5ktdna4-61">
          <mxGeometry x="530" y="125" width="80" height="20" as="geometry"/>
        </mxCell>
        <mxCell id="cDVxxowh9d5He5ktdna4-67" value="Inbox" style="text;html=1;strokeColor=none;fillColor=none;align=center;verticalAlign=middle;whiteSpace=wrap;rounded=0;" vertex="1" parent="cDVxxowh9d5He5ktdna4-61">
          <mxGeometry x="460" y="125" width="80" height="20" as="geometry"/>
        </mxCell>
        <mxCell id="cDVxxowh9d5He5ktdna4-68" value="Compose" style="rounded=1;whiteSpace=wrap;html=1;fontSize=13;align=center;" vertex="1" parent="cDVxxowh9d5He5ktdna4-61">
          <mxGeometry x="30" y="170" width="140" height="40" as="geometry"/>
        </mxCell>
        <mxCell id="cDVxxowh9d5He5ktdna4-69" value="&amp;nbsp; &lt;b style=&quot;font-size: 12px;&quot;&gt;Latest Newsletter&lt;/b&gt;&lt;br style=&quot;font-size: 12px;&quot;&gt;&amp;nbsp; Computer Weekly" style="rounded=0;whiteSpace=wrap;html=1;fontSize=12;align=left;" vertex="1" parent="cDVxxowh9d5He5ktdna4-61">
          <mxGeometry x="30" y="225" width="140" height="45" as="geometry"/>
        </mxCell>
        <mxCell id="cDVxxowh9d5He5ktdna4-70" value="&amp;nbsp; &lt;b style=&quot;font-size: 12px&quot;&gt;About our trip...&lt;/b&gt;&lt;br style=&quot;font-size: 12px&quot;&gt;&amp;nbsp; Friendly friend" style="rounded=0;whiteSpace=wrap;html=1;fontSize=12;align=left;" vertex="1" parent="cDVxxowh9d5He5ktdna4-61">
          <mxGeometry x="30" y="270" width="140" height="45" as="geometry"/>
        </mxCell>
        <mxCell id="cDVxxowh9d5He5ktdna4-71" value="&amp;nbsp; &lt;b style=&quot;font-size: 12px&quot;&gt;Pictures from Monday&lt;/b&gt;&lt;br style=&quot;font-size: 12px&quot;&gt;&amp;nbsp; Friendly friend" style="rounded=0;whiteSpace=wrap;html=1;fontSize=12;align=left;" vertex="1" parent="cDVxxowh9d5He5ktdna4-61">
          <mxGeometry x="30" y="315" width="140" height="45" as="geometry"/>
        </mxCell>
        <mxCell id="cDVxxowh9d5He5ktdna4-72" value="&amp;nbsp; &lt;b&gt;10% off Food&lt;/b&gt;&lt;br style=&quot;font-size: 12px&quot;&gt;&amp;nbsp; Marketin Email" style="rounded=0;whiteSpace=wrap;html=1;fontSize=12;align=left;" vertex="1" parent="cDVxxowh9d5He5ktdna4-61">
          <mxGeometry x="30" y="360" width="140" height="45" as="geometry"/>
        </mxCell>
        <mxCell id="cDVxxowh9d5He5ktdna4-73" value="" style="rounded=0;whiteSpace=wrap;html=1;fontSize=12;align=center;" vertex="1" parent="cDVxxowh9d5He5ktdna4-61">
          <mxGeometry x="180" y="170" width="400" height="240" as="geometry"/>
        </mxCell>
        <mxCell id="cDVxxowh9d5He5ktdna4-76" value="&lt;b style=&quot;font-size: 13px;&quot;&gt;From: newsletter@computerweekly.com&lt;/b&gt;" style="text;html=1;strokeColor=none;fillColor=none;align=left;verticalAlign=middle;whiteSpace=wrap;rounded=0;fontSize=13;" vertex="1" parent="cDVxxowh9d5He5ktdna4-61">
          <mxGeometry x="190" y="180" width="370" height="20" as="geometry"/>
        </mxCell>
        <mxCell id="cDVxxowh9d5He5ktdna4-77" value="&lt;b style=&quot;font-size: 13px&quot;&gt;To: stephen@angular-email.com&lt;/b&gt;" style="text;html=1;strokeColor=none;fillColor=none;align=left;verticalAlign=middle;whiteSpace=wrap;rounded=0;fontSize=13;" vertex="1" parent="cDVxxowh9d5He5ktdna4-61">
          <mxGeometry x="190" y="200" width="370" height="20" as="geometry"/>
        </mxCell>
        <mxCell id="cDVxxowh9d5He5ktdna4-78" value="&lt;b style=&quot;font-size: 13px&quot;&gt;Subject: Latest Newsletter&lt;/b&gt;" style="text;html=1;strokeColor=none;fillColor=none;align=left;verticalAlign=middle;whiteSpace=wrap;rounded=0;fontSize=13;" vertex="1" parent="cDVxxowh9d5He5ktdna4-61">
          <mxGeometry x="190" y="220" width="370" height="20" as="geometry"/>
        </mxCell>
        <mxCell id="cDVxxowh9d5He5ktdna4-79" value="Reply" style="rounded=1;whiteSpace=wrap;html=1;fontSize=13;align=center;" vertex="1" parent="cDVxxowh9d5He5ktdna4-61">
          <mxGeometry x="480" y="185" width="90" height="40" as="geometry"/>
        </mxCell>
        <mxCell id="cDVxxowh9d5He5ktdna4-80" value="" style="endArrow=none;html=1;fontSize=13;" edge="1" parent="cDVxxowh9d5He5ktdna4-61">
          <mxGeometry width="50" height="50" relative="1" as="geometry">
            <mxPoint x="190" y="247.10000000000002" as="sourcePoint"/>
            <mxPoint x="570" y="247.10000000000002" as="targetPoint"/>
          </mxGeometry>
        </mxCell>
        <mxCell id="cDVxxowh9d5He5ktdna4-81" value="Here is our latest newsletter for this week" style="text;html=1;strokeColor=none;fillColor=none;align=left;verticalAlign=middle;whiteSpace=wrap;rounded=0;fontSize=13;" vertex="1" parent="cDVxxowh9d5He5ktdna4-61">
          <mxGeometry x="200" y="260" width="270" height="20" as="geometry"/>
        </mxCell>
        <mxCell id="cDVxxowh9d5He5ktdna4-82" value="&lt;ul&gt;&lt;li&gt;Some stuff happened&lt;/li&gt;&lt;li&gt;Other stuff happened too&lt;/li&gt;&lt;li&gt;Isn&#39;t that great?&lt;/li&gt;&lt;li&gt;Sign up for our other newsletter&lt;/li&gt;&lt;/ul&gt;" style="text;html=1;strokeColor=none;fillColor=none;align=left;verticalAlign=middle;whiteSpace=wrap;rounded=0;fontSize=13;" vertex="1" parent="cDVxxowh9d5He5ktdna4-61">
          <mxGeometry x="190" y="270" width="280" height="95" as="geometry"/>
        </mxCell>
        <mxCell id="cDVxxowh9d5He5ktdna4-83" value="" style="strokeWidth=1;shadow=0;dashed=0;align=center;html=1;shape=mxgraph.mockup.containers.browserWindow;rSize=0;strokeColor=#666666;strokeColor2=#008cff;strokeColor3=#c4c4c4;mainText=,;recursiveResize=0;" vertex="1" parent="1">
          <mxGeometry x="2810" y="160" width="630" height="470" as="geometry"/>
        </mxCell>
        <mxCell id="cDVxxowh9d5He5ktdna4-84" value="Page 1" style="strokeWidth=1;shadow=0;dashed=0;align=center;html=1;shape=mxgraph.mockup.containers.anchor;fontSize=17;fontColor=#666666;align=left;" vertex="1" parent="cDVxxowh9d5He5ktdna4-83">
          <mxGeometry x="60" y="12" width="110" height="26" as="geometry"/>
        </mxCell>
        <mxCell id="cDVxxowh9d5He5ktdna4-85" value="localhost:4200/inbox/lalkgkj3k434" style="strokeWidth=1;shadow=0;dashed=0;align=center;html=1;shape=mxgraph.mockup.containers.anchor;rSize=0;fontSize=17;fontColor=#666666;align=left;" vertex="1" parent="cDVxxowh9d5He5ktdna4-83">
          <mxGeometry x="130" y="60" width="250" height="26" as="geometry"/>
        </mxCell>
        <mxCell id="cDVxxowh9d5He5ktdna4-86" value="" style="rounded=0;whiteSpace=wrap;html=1;" vertex="1" parent="cDVxxowh9d5He5ktdna4-83">
          <mxGeometry y="110" width="630" height="50" as="geometry"/>
        </mxCell>
        <mxCell id="cDVxxowh9d5He5ktdna4-87" value="Angular Email" style="text;html=1;strokeColor=none;fillColor=none;align=center;verticalAlign=middle;whiteSpace=wrap;rounded=0;" vertex="1" parent="cDVxxowh9d5He5ktdna4-83">
          <mxGeometry x="20" y="125" width="80" height="20" as="geometry"/>
        </mxCell>
        <mxCell id="cDVxxowh9d5He5ktdna4-88" value="Sign Out" style="text;html=1;strokeColor=none;fillColor=none;align=center;verticalAlign=middle;whiteSpace=wrap;rounded=0;" vertex="1" parent="cDVxxowh9d5He5ktdna4-83">
          <mxGeometry x="530" y="125" width="80" height="20" as="geometry"/>
        </mxCell>
        <mxCell id="cDVxxowh9d5He5ktdna4-89" value="Inbox" style="text;html=1;strokeColor=none;fillColor=none;align=center;verticalAlign=middle;whiteSpace=wrap;rounded=0;" vertex="1" parent="cDVxxowh9d5He5ktdna4-83">
          <mxGeometry x="460" y="125" width="80" height="20" as="geometry"/>
        </mxCell>
        <mxCell id="cDVxxowh9d5He5ktdna4-90" value="Compose" style="rounded=1;whiteSpace=wrap;html=1;fontSize=13;align=center;" vertex="1" parent="cDVxxowh9d5He5ktdna4-83">
          <mxGeometry x="30" y="170" width="140" height="40" as="geometry"/>
        </mxCell>
        <mxCell id="cDVxxowh9d5He5ktdna4-91" value="&amp;nbsp; &lt;b style=&quot;font-size: 12px;&quot;&gt;Latest Newsletter&lt;/b&gt;&lt;br style=&quot;font-size: 12px;&quot;&gt;&amp;nbsp; Computer Weekly" style="rounded=0;whiteSpace=wrap;html=1;fontSize=12;align=left;" vertex="1" parent="cDVxxowh9d5He5ktdna4-83">
          <mxGeometry x="30" y="225" width="140" height="45" as="geometry"/>
        </mxCell>
        <mxCell id="cDVxxowh9d5He5ktdna4-92" value="&amp;nbsp; &lt;b style=&quot;font-size: 12px&quot;&gt;About our trip...&lt;/b&gt;&lt;br style=&quot;font-size: 12px&quot;&gt;&amp;nbsp; Friendly friend" style="rounded=0;whiteSpace=wrap;html=1;fontSize=12;align=left;" vertex="1" parent="cDVxxowh9d5He5ktdna4-83">
          <mxGeometry x="30" y="270" width="140" height="45" as="geometry"/>
        </mxCell>
        <mxCell id="cDVxxowh9d5He5ktdna4-93" value="&amp;nbsp; &lt;b style=&quot;font-size: 12px&quot;&gt;Pictures from Monday&lt;/b&gt;&lt;br style=&quot;font-size: 12px&quot;&gt;&amp;nbsp; Friendly friend" style="rounded=0;whiteSpace=wrap;html=1;fontSize=12;align=left;" vertex="1" parent="cDVxxowh9d5He5ktdna4-83">
          <mxGeometry x="30" y="315" width="140" height="45" as="geometry"/>
        </mxCell>
        <mxCell id="cDVxxowh9d5He5ktdna4-94" value="&amp;nbsp; &lt;b&gt;10% off Food&lt;/b&gt;&lt;br style=&quot;font-size: 12px&quot;&gt;&amp;nbsp; Marketin Email" style="rounded=0;whiteSpace=wrap;html=1;fontSize=12;align=left;" vertex="1" parent="cDVxxowh9d5He5ktdna4-83">
          <mxGeometry x="30" y="360" width="140" height="45" as="geometry"/>
        </mxCell>
        <mxCell id="cDVxxowh9d5He5ktdna4-95" value="" style="rounded=0;whiteSpace=wrap;html=1;fontSize=12;align=center;" vertex="1" parent="cDVxxowh9d5He5ktdna4-83">
          <mxGeometry x="180" y="170" width="400" height="240" as="geometry"/>
        </mxCell>
        <mxCell id="cDVxxowh9d5He5ktdna4-96" value="&lt;b style=&quot;font-size: 13px;&quot;&gt;From: newsletter@computerweekly.com&lt;/b&gt;" style="text;html=1;strokeColor=none;fillColor=none;align=left;verticalAlign=middle;whiteSpace=wrap;rounded=0;fontSize=13;" vertex="1" parent="cDVxxowh9d5He5ktdna4-83">
          <mxGeometry x="190" y="180" width="370" height="20" as="geometry"/>
        </mxCell>
        <mxCell id="cDVxxowh9d5He5ktdna4-97" value="&lt;b style=&quot;font-size: 13px&quot;&gt;To: stephen@angular-email.com&lt;/b&gt;" style="text;html=1;strokeColor=none;fillColor=none;align=left;verticalAlign=middle;whiteSpace=wrap;rounded=0;fontSize=13;" vertex="1" parent="cDVxxowh9d5He5ktdna4-83">
          <mxGeometry x="190" y="200" width="370" height="20" as="geometry"/>
        </mxCell>
        <mxCell id="cDVxxowh9d5He5ktdna4-98" value="&lt;b style=&quot;font-size: 13px&quot;&gt;Subject: Latest Newsletter&lt;/b&gt;" style="text;html=1;strokeColor=none;fillColor=none;align=left;verticalAlign=middle;whiteSpace=wrap;rounded=0;fontSize=13;" vertex="1" parent="cDVxxowh9d5He5ktdna4-83">
          <mxGeometry x="190" y="220" width="370" height="20" as="geometry"/>
        </mxCell>
        <mxCell id="cDVxxowh9d5He5ktdna4-99" value="Reply" style="rounded=1;whiteSpace=wrap;html=1;fontSize=13;align=center;" vertex="1" parent="cDVxxowh9d5He5ktdna4-83">
          <mxGeometry x="480" y="185" width="90" height="40" as="geometry"/>
        </mxCell>
        <mxCell id="cDVxxowh9d5He5ktdna4-100" value="" style="endArrow=none;html=1;fontSize=13;" edge="1" parent="cDVxxowh9d5He5ktdna4-83">
          <mxGeometry width="50" height="50" relative="1" as="geometry">
            <mxPoint x="190" y="247.10000000000002" as="sourcePoint"/>
            <mxPoint x="570" y="247.10000000000002" as="targetPoint"/>
          </mxGeometry>
        </mxCell>
        <mxCell id="cDVxxowh9d5He5ktdna4-101" value="Here is our latest newsletter for this week" style="text;html=1;strokeColor=none;fillColor=none;align=left;verticalAlign=middle;whiteSpace=wrap;rounded=0;fontSize=13;" vertex="1" parent="cDVxxowh9d5He5ktdna4-83">
          <mxGeometry x="200" y="260" width="270" height="20" as="geometry"/>
        </mxCell>
        <mxCell id="cDVxxowh9d5He5ktdna4-102" value="&lt;ul&gt;&lt;li&gt;Some stuff happened&lt;/li&gt;&lt;li&gt;Other stuff happened too&lt;/li&gt;&lt;li&gt;Isn&#39;t that great?&lt;/li&gt;&lt;li&gt;Sign up for our other newsletter&lt;/li&gt;&lt;/ul&gt;" style="text;html=1;strokeColor=none;fillColor=none;align=left;verticalAlign=middle;whiteSpace=wrap;rounded=0;fontSize=13;" vertex="1" parent="cDVxxowh9d5He5ktdna4-83">
          <mxGeometry x="190" y="270" width="280" height="95" as="geometry"/>
        </mxCell>
        <mxCell id="cDVxxowh9d5He5ktdna4-103" value="" style="rounded=0;whiteSpace=wrap;html=1;fontSize=13;align=left;opacity=70;fillColor=#f5f5f5;strokeColor=#666666;fontColor=#333333;" vertex="1" parent="cDVxxowh9d5He5ktdna4-83">
          <mxGeometry y="110" width="630" height="360" as="geometry"/>
        </mxCell>
        <mxCell id="cDVxxowh9d5He5ktdna4-104" value="" style="rounded=0;whiteSpace=wrap;html=1;fontSize=13;align=left;" vertex="1" parent="cDVxxowh9d5He5ktdna4-83">
          <mxGeometry x="100" y="125" width="430" height="315" as="geometry"/>
        </mxCell>
        <mxCell id="cDVxxowh9d5He5ktdna4-105" value="x" style="text;html=1;strokeColor=none;fillColor=none;align=center;verticalAlign=middle;whiteSpace=wrap;rounded=0;fontSize=13;" vertex="1" parent="cDVxxowh9d5He5ktdna4-83">
          <mxGeometry x="480" y="130" width="40" height="20" as="geometry"/>
        </mxCell>
        <mxCell id="cDVxxowh9d5He5ktdna4-106" value="Reply" style="text;html=1;strokeColor=none;fillColor=none;align=center;verticalAlign=middle;whiteSpace=wrap;rounded=0;fontSize=13;" vertex="1" parent="cDVxxowh9d5He5ktdna4-83">
          <mxGeometry x="120" y="130" width="40" height="20" as="geometry"/>
        </mxCell>
        <mxCell id="cDVxxowh9d5He5ktdna4-108" value="&amp;nbsp; &amp;nbsp;newsletter@computerweekly.com" style="rounded=0;whiteSpace=wrap;html=1;fontSize=13;align=left;" vertex="1" parent="cDVxxowh9d5He5ktdna4-83">
          <mxGeometry x="120" y="185" width="360" height="29" as="geometry"/>
        </mxCell>
        <mxCell id="cDVxxowh9d5He5ktdna4-109" value="To" style="text;html=1;strokeColor=none;fillColor=none;align=left;verticalAlign=middle;whiteSpace=wrap;rounded=0;fontSize=13;fontStyle=1" vertex="1" parent="cDVxxowh9d5He5ktdna4-83">
          <mxGeometry x="120" y="165" width="90" height="20" as="geometry"/>
        </mxCell>
        <mxCell id="cDVxxowh9d5He5ktdna4-110" value="&amp;nbsp; stephen@angular-email.com" style="rounded=0;whiteSpace=wrap;html=1;fontSize=13;align=left;" vertex="1" parent="cDVxxowh9d5He5ktdna4-83">
          <mxGeometry x="120" y="240" width="360" height="29" as="geometry"/>
        </mxCell>
        <mxCell id="cDVxxowh9d5He5ktdna4-111" value="From" style="text;html=1;strokeColor=none;fillColor=none;align=left;verticalAlign=middle;whiteSpace=wrap;rounded=0;fontSize=13;fontStyle=1" vertex="1" parent="cDVxxowh9d5He5ktdna4-83">
          <mxGeometry x="120" y="220" width="90" height="20" as="geometry"/>
        </mxCell>
        <mxCell id="cDVxxowh9d5He5ktdna4-112" value="&amp;nbsp; Re: Latest Newsletter" style="rounded=0;whiteSpace=wrap;html=1;fontSize=13;align=left;" vertex="1" parent="cDVxxowh9d5He5ktdna4-83">
          <mxGeometry x="120" y="293" width="360" height="29" as="geometry"/>
        </mxCell>
        <mxCell id="cDVxxowh9d5He5ktdna4-113" value="Subject" style="text;html=1;strokeColor=none;fillColor=none;align=left;verticalAlign=middle;whiteSpace=wrap;rounded=0;fontSize=13;fontStyle=1" vertex="1" parent="cDVxxowh9d5He5ktdna4-83">
          <mxGeometry x="120" y="273" width="90" height="20" as="geometry"/>
        </mxCell>
        <mxCell id="cDVxxowh9d5He5ktdna4-114" value="" style="rounded=0;whiteSpace=wrap;html=1;fontSize=13;align=left;" vertex="1" parent="cDVxxowh9d5He5ktdna4-83">
          <mxGeometry x="120" y="342" width="360" height="58" as="geometry"/>
        </mxCell>
        <mxCell id="cDVxxowh9d5He5ktdna4-115" value="Content" style="text;html=1;strokeColor=none;fillColor=none;align=left;verticalAlign=middle;whiteSpace=wrap;rounded=0;fontSize=13;fontStyle=1" vertex="1" parent="cDVxxowh9d5He5ktdna4-83">
          <mxGeometry x="120" y="322" width="90" height="20" as="geometry"/>
        </mxCell>
        <mxCell id="cDVxxowh9d5He5ktdna4-116" value="Send" style="rounded=1;whiteSpace=wrap;html=1;fontSize=13;align=center;" vertex="1" parent="cDVxxowh9d5He5ktdna4-83">
          <mxGeometry x="120" y="405" width="100" height="30" as="geometry"/>
        </mxCell>
        <mxCell id="cDVxxowh9d5He5ktdna4-117" value="Take me off your newsletter&lt;br&gt;&lt;br&gt;&amp;gt; Here is our latest newsletter for this week" style="text;html=1;strokeColor=none;fillColor=none;align=left;verticalAlign=middle;whiteSpace=wrap;rounded=0;fontSize=13;" vertex="1" parent="cDVxxowh9d5He5ktdna4-83">
          <mxGeometry x="130" y="360" width="270" height="20" as="geometry"/>
        </mxCell>
      </root>
    </mxGraphModel>
  </diagram>
</mxfile>
